<svg preserveAspectRatio="none" width="100%" height="100%" overflow="visible" style="display: block;" viewBox="0 0 182.844 40" fill="none" xmlns="http://www.w3.org/2000/svg">
<g id="logo-container">
<g id="Security Findings">
<path d="M2.92772 21.0361H0C0.0216868 23.8602 2.32049 25.8512 6.46268 25.8512C10.2362 25.8512 12.7519 24.1852 12.7519 21.2393C12.7519 18.6794 10.8001 17.4807 8.50124 17.0541L5.79039 16.5462C4.90123 16.3633 3.31809 16.0789 3.31809 14.6567C3.31809 13.4987 4.294 12.7469 6.11569 12.7469C7.9157 12.7469 9.15185 13.4783 9.26028 15.0021H12.188C12.1229 12.3812 9.93258 10.634 6.24581 10.634C2.68917 10.634 0.325303 12.3812 0.325303 15.0224C0.325303 18.1512 3.44821 18.7607 4.85785 19.0451L7.52534 19.5734C8.21932 19.7156 9.71571 20.0203 9.71571 21.5238C9.71571 22.824 8.56631 23.718 6.50605 23.718C4.22894 23.718 3.01447 22.7631 2.92772 21.0361Z" fill="var(--fill-0, white)"/>
<path d="M19.4933 25.8512C22.2909 25.8512 24.3945 24.429 24.7848 22.3161H22.1174C21.8571 23.2304 20.8595 23.8805 19.4716 23.8805C17.6932 23.8805 16.5438 22.8037 16.5872 20.833H24.6114C24.6764 20.4876 24.7198 19.9594 24.7198 19.553C24.7198 16.6274 22.7246 14.677 19.4499 14.677C16.1318 14.677 13.8981 16.8712 13.8981 20.2844C13.8981 23.657 16.1535 25.8512 19.4933 25.8512ZM16.6089 19.1061C16.674 17.623 17.7583 16.6274 19.3848 16.6274C21.033 16.6274 22.0089 17.5417 22.0306 19.1061H16.6089Z" fill="var(--fill-0, white)"/>
<path d="M36.7556 21.8082H34.0448C33.893 22.9459 32.9388 23.7383 31.5074 23.7383C29.7942 23.7383 28.6448 22.5802 28.6448 20.2844C28.6448 18.1918 29.6207 16.8103 31.5291 16.8103C32.7436 16.8103 33.7629 17.3588 34.0231 18.6185H36.7123C36.4954 16.2211 34.3918 14.677 31.5725 14.677C28.1243 14.677 25.9122 16.9119 25.9122 20.2641C25.9122 23.6367 28.1243 25.8512 31.5291 25.8512C34.4352 25.8512 36.5605 24.2462 36.7556 21.8082Z" fill="var(--fill-0, white)"/>
<path d="M48.7563 14.8802H46.0671V20.5486C46.0671 22.4177 44.9611 23.7383 43.1828 23.7383C41.7514 23.7383 40.949 22.9459 40.949 21.3003V14.8802H38.2381V21.666C38.2381 24.2665 39.5827 25.8512 42.0767 25.8512C43.8984 25.8512 45.2213 24.9979 45.8719 23.6773H46.0671L46.4141 25.648H48.7563V14.8802Z" fill="var(--fill-0, white)"/>
<path d="M51.1242 25.648H53.8134V20.8939C53.8134 18.3747 55.0061 16.9119 57.5652 16.9119V14.6974C55.8519 14.6974 54.5507 15.4084 53.9435 16.9728H53.8134L53.4664 14.8802H51.1242V25.648Z" fill="var(--fill-0, white)"/>
<path d="M58.7121 13.4783H61.3795V10.7559H58.7121V13.4783ZM58.7121 25.648H61.3795V14.8802H58.7121V25.648Z" fill="var(--fill-0, white)"/>
<path d="M62.5193 14.8802V16.9322H64.406V22.499C64.406 24.2462 64.9916 25.8106 67.8326 25.8106C68.4398 25.8106 68.9603 25.7699 69.6109 25.648V23.6367C69.394 23.6976 68.9169 23.7586 68.5699 23.7586C67.3338 23.7586 67.1169 23.0678 67.1169 22.2145V16.9322H71.2476V14.8802H67.1169V10.9997L64.406 11.9749V14.8802H62.5193Z" fill="var(--fill-0, white)"/>
<path d="M69.5907 14.8802L73.8847 25.1401L73.6895 25.6684C73.4944 26.2575 72.9522 27.1312 71.3907 27.1312C71.1955 27.1312 70.8269 27.1312 70.3498 27.0499V29.1425C70.7401 29.2035 71.2606 29.2441 71.6293 29.2441C74.3835 29.2441 75.8148 27.8016 76.5305 25.8309L80.6293 14.8802H77.81L76.292 19.4718L75.2944 22.6412H75.1425L74.1233 19.4718L72.4968 14.8802H69.5907Z" fill="var(--fill-0, white)"/>
<path d="M86.1308 25.648H88.4947V19.9594H95.8032V18.0699H88.4947V12.8079H96.6707V10.8372H86.1308V25.648Z" fill="var(--fill-0, white)"/>
<path d="M98.4768 13.3565H100.689V10.8575H98.4768V13.3565ZM98.4768 25.648H100.689V14.9615H98.4768V25.648Z" fill="var(--fill-0, white)"/>
<path d="M103.544 25.648H105.778V20.0406C105.778 17.9887 107.014 16.5868 108.923 16.5868C110.549 16.5868 111.46 17.4604 111.46 19.3296V25.648H113.715V19.1264C113.715 16.4852 112.306 14.7583 109.768 14.7583C108.055 14.7583 106.646 15.571 105.952 16.9525H105.8L105.496 14.9615H103.544V25.648Z" fill="var(--fill-0, white)"/>
<path d="M126.642 25.648V10.695H124.386V17.0541H124.235C123.671 15.7335 122.326 14.7583 120.374 14.7583C117.49 14.7583 115.538 16.9322 115.538 20.386C115.538 23.7383 117.403 25.8512 120.353 25.8512C122.131 25.8512 123.649 25.0589 124.235 23.7586H124.386L124.625 25.648H126.642ZM124.386 20.9549C124.386 22.7224 123.02 24.043 121.025 24.043C119.095 24.043 117.837 22.8037 117.837 20.386C117.837 18.0699 118.965 16.5868 121.068 16.5868C122.955 16.5868 124.386 17.8058 124.386 19.7562V20.9549Z" fill="var(--fill-0, white)"/>
<path d="M129.479 13.3565H131.691V10.8575H129.479V13.3565ZM129.479 25.648H131.691V14.9615H129.479V25.648Z" fill="var(--fill-0, white)"/>
<path d="M134.546 25.648H136.78V20.0406C136.78 17.9887 138.016 16.5868 139.925 16.5868C141.551 16.5868 142.462 17.4604 142.462 19.3296V25.648H144.718V19.1264C144.718 16.4852 143.308 14.7583 140.771 14.7583C139.057 14.7583 137.648 15.571 136.954 16.9525H136.802L136.498 14.9615H134.546V25.648Z" fill="var(--fill-0, white)"/>
<path d="M146.345 26.7858C146.345 28.3298 147.841 29.366 151.203 29.366C154.629 29.366 156.841 28.3908 156.841 26.1966C156.841 24.5103 155.584 23.4538 153.328 23.4538H150.422C149.88 23.4538 148.947 23.4132 148.947 22.5802C148.947 22.1333 149.251 21.7879 149.815 21.6863C150.249 21.7879 150.791 21.8285 151.311 21.8285C153.914 21.8285 155.649 20.447 155.649 18.3543C155.649 17.3588 155.237 16.4649 154.521 15.8554C154.76 15.2865 155.605 14.8802 156.625 14.8802V13.1939C154.955 13.1939 153.654 13.9863 153.22 15.1646C152.699 14.9005 151.919 14.7583 151.16 14.7583C148.579 14.7583 146.779 16.1602 146.779 18.2934C146.779 19.4921 147.364 20.5282 148.427 21.1174V21.2596C147.516 21.5238 146.887 22.1942 146.887 23.0678C146.887 23.7586 147.343 24.3478 148.058 24.5713V24.7135C147.039 24.9776 146.345 25.7699 146.345 26.7858ZM148.991 18.3137C148.991 17.0947 149.815 16.2617 151.203 16.2617C152.547 16.2617 153.437 17.0135 153.437 18.3137C153.437 19.5327 152.634 20.3454 151.203 20.3454C149.88 20.3454 148.991 19.614 148.991 18.3137ZM148.384 26.4201C148.384 25.648 148.947 25.1401 150.097 25.1401H153.046C153.328 25.1401 154.608 25.1401 154.608 26.2779C154.608 27.2531 153.654 27.8219 151.311 27.8219C149.316 27.8219 148.384 27.3749 148.384 26.4201Z" fill="var(--fill-0, white)"/>
<path d="M159.622 22.3771H157.432C157.432 24.429 159.189 25.8512 162.203 25.8512C165.001 25.8512 166.844 24.5916 166.844 22.5802C166.844 21.0565 165.998 19.9391 163.808 19.5734L161.639 19.2077C161.032 19.1264 159.904 18.9435 159.904 17.8261C159.904 16.9119 160.663 16.343 162.051 16.343C163.439 16.343 164.328 16.8712 164.372 18.0496H166.54C166.497 16.0992 164.871 14.7583 162.073 14.7583C159.405 14.7583 157.649 15.957 157.649 18.0293C157.649 19.4311 158.516 20.5282 160.772 20.9143L163.092 21.3206C163.656 21.4222 164.524 21.6457 164.524 22.6615C164.524 23.657 163.678 24.2665 162.203 24.2665C160.598 24.2665 159.622 23.5554 159.622 22.3771Z" fill="var(--fill-0, white)"/>
</g>
</g>
</svg>
