<svg preserveAspectRatio="none" width="100%" height="100%" overflow="visible" style="display: block;" viewBox="0 0 16 16" fill="none" xmlns="http://www.w3.org/2000/svg">
<g id="zap">
<path id="Icon" fill-rule="evenodd" clip-rule="evenodd" d="M10.561 1.5C10.5573 1.50014 10.5538 1.50155 10.551 1.504L3.286 8.571C3.25031 8.60579 3.22584 8.65046 3.21572 8.69926C3.20561 8.74807 3.21031 8.79878 3.22923 8.84489C3.24815 8.891 3.28041 8.93041 3.32189 8.95805C3.36337 8.98569 3.41216 9.00029 3.462 9H6.75C6.87305 9.00002 6.9942 9.03032 7.10278 9.08823C7.21135 9.14613 7.30401 9.22986 7.37259 9.33203C7.44116 9.4342 7.48354 9.55167 7.496 9.67409C7.50845 9.79651 7.49059 9.92011 7.444 10.034L5.731 14.222L12.713 7.429C12.7486 7.39427 12.7731 7.34969 12.7832 7.30098C12.7934 7.25227 12.7887 7.20164 12.77 7.15557C12.7512 7.1095 12.7191 7.07009 12.6777 7.04237C12.6364 7.01466 12.5878 6.99991 12.538 7H9.25C9.12454 7.00001 9.00107 6.96855 8.89092 6.90849C8.78076 6.84843 8.68743 6.7617 8.61948 6.65623C8.55152 6.55076 8.51111 6.42993 8.50194 6.3048C8.49277 6.17968 8.51514 6.05425 8.567 5.94L10.575 1.522L10.578 1.516C10.5774 1.51271 10.5761 1.50962 10.574 1.507C10.5725 1.50459 10.5704 1.50255 10.568 1.501L10.56 1.5H10.561ZM9.504 0.43C9.7573 0.184115 10.0885 0.0343379 10.4404 0.00650296C10.7923 -0.021332 11.1429 0.0745205 11.4317 0.277527C11.7205 0.480534 11.9294 0.777967 12.0224 1.11852C12.1154 1.45908 12.0866 1.8214 11.941 2.143L10.415 5.5H12.538C14.108 5.5 14.884 7.409 13.758 8.504L6.418 15.646C6.1848 15.8729 5.87234 15.9998 5.547 16H5.245C5.03993 16 4.83801 15.9495 4.65705 15.8531C4.47608 15.7566 4.32163 15.6171 4.20731 15.4468C4.09299 15.2766 4.02231 15.0808 4.0015 14.8768C3.9807 14.6728 4.0104 14.4668 4.088 14.277L5.633 10.5H3.462C1.892 10.5 1.116 8.591 2.242 7.496L9.503 0.429L9.504 0.43Z" fill="var(--fill-0, #6F42C1)"/>
</g>
</svg>
